<?xml version="1.0" encoding="iso-8859-1"?>
<!-- Uploaded to: SVG Repo, www.svgrepo.com, Generator: SVG Repo Mixer Tools -->
<svg height="800px" width="800px" version="1.1" id="Layer_1" xmlns="http://www.w3.org/2000/svg" xmlns:xlink="http://www.w3.org/1999/xlink" 
	 viewBox="0 0 512 512" xml:space="preserve">
<g transform="translate(-1)">
	<g>
		<path style="fill:#A48164;" d="M482.112,256c-3.24,0-6.356-1.783-7.91-4.882l-35.31-70.621c-2.18-4.361-0.406-9.657,3.955-11.847
			c4.361-2.172,9.657-0.406,11.847,3.955l35.31,70.621c2.18,4.361,0.406,9.657-3.955,11.847C484.787,255.7,483.436,256,482.112,256"
			/>
		<path style="fill:#A48164;" d="M31.888,264.828c-1.324,0-2.675-0.3-3.937-0.927c-4.361-2.189-6.135-7.486-3.955-11.847
			l35.31-70.621c2.189-4.361,7.486-6.126,11.847-3.955c4.361,2.189,6.135,7.486,3.955,11.847l-35.31,70.621
			C38.244,263.044,35.127,264.828,31.888,264.828"/>
	</g>
	<polygon style="fill:#DF5548;" points="464.448,512 58.379,512 58.379,185.379 111.345,79.448 261.361,0 411.483,79.448 
		464.448,185.379 	"/>
	<g>
		<path style="fill:#FFFFFF;" d="M146.655,256h-25.927c-4.873,0-8.828-3.946-8.828-8.828s3.955-8.828,8.828-8.828h25.927
			c4.882,0,8.828,3.946,8.828,8.828S151.537,256,146.655,256"/>
		<path style="fill:#FFFFFF;" d="M402.095,256h-25.927c-4.873,0-8.828-3.946-8.828-8.828s3.955-8.828,8.828-8.828h25.927
			c4.882,0,8.828,3.946,8.828,8.828S406.976,256,402.095,256"/>
	</g>
	<polygon style="fill:#ECE8D8;" points="155.483,512 261.414,512 261.414,353.103 155.483,353.103 	"/>
	<g>
		<polygon style="fill:#FFFFFF;" points="261.414,512 367.345,512 367.345,353.103 261.414,353.103 		"/>
		<polygon style="fill:#FFFFFF;" points="146.655,256 376.172,256 376.172,132.414 146.655,132.414 		"/>
	</g>
	<path style="fill:#FEC24C;" d="M270.241,256h-88.276c0-21.327,12.985-40.501,32.786-48.428l11.352-4.537l11.352,4.537
		C257.256,215.499,270.241,234.673,270.241,256L270.241,256z"/>
	<path style="fill:#BC8D2F;" d="M287.897,167.724c-23.473,9.384-39.795,21.071-43.37,43.317
		c15.766,9.269,25.715,26.289,25.715,44.959l0,0h61.793v-35.31C332.035,191.974,314.557,178.388,287.897,167.724"/>
	<g>
		<polygon style="fill:#A48164;" points="367.345,369.017 367.345,353.101 356.734,353.101 261.414,496.09 261.414,511.997 
			272.025,511.997 		"/>
		<polygon style="fill:#A48164;" points="261.414,369.017 356.734,511.997 367.345,511.997 367.345,496.09 272.025,353.101 
			261.414,353.101 		"/>
		<polygon style="fill:#A48164;" points="155.483,369.017 250.803,511.997 261.414,511.997 261.414,496.09 166.094,353.101 
			155.483,353.101 		"/>
		<polygon style="fill:#A48164;" points="261.414,369.017 261.414,353.101 250.803,353.101 155.483,496.09 155.483,511.997 
			166.094,511.997 		"/>
	</g>
</g>
</svg>